{
  "accessors": [
    {
      "bufferView": 0,
      "componentType": 5126,
      "count": 64133,
      "max": [
        0.093861997127533,
        0.0662290006875992,
        0.0817029997706413
      ],
      "min": [
        -0.0938069969415665,
        -0.0657069981098175,
        -0.0814829990267754
      ],
      "type": "VEC3"
    },
    {
      "bufferView": 1,
      "componentType": 5126,
      "count": 64133,
      "type": "VEC3"
    },
    {
      "bufferView": 2,
      "componentType": 5126,
      "count": 64133,
      "type": "VEC2"
    },
    {
      "bufferView": 3,
      "componentType": 5123,
      "count": 300000,
      "type": "SCALAR"
    }
  ],
  "asset": {
    "generator": "MeshSmith mesh conversion tool",
    "version": "2.0"
  },
  "bufferViews": [
    {
      "buffer": 0,
      "byteLength": 769596,
      "target": 34962
    },
    {
      "buffer": 0,
      "byteLength": 769596,
      "byteOffset": 769596,
      "target": 34962
    },
    {
      "buffer": 0,
      "byteLength": 513064,
      "byteOffset": 1539192,
      "target": 34962
    },
    {
      "buffer": 0,
      "byteLength": 600000,
      "byteOffset": 2052256,
      "target": 34963
    }
  ],
  "buffers": [
    {
      "byteLength": 2652256,
      "uri": "usnm_1137708-100k-4096.bin"
    }
  ],
  "images": [
    {
      "uri": "usnm_1137708-100k-4096-diffuse.jpg"
    },
    {
      "uri": "usnm_1137708-100k-4096-occlusion.jpg"
    },
    {
      "uri": "usnm_1137708-100k-4096-normals.jpg"
    }
  ],
  "materials": [
    {
      "name": "default",
      "normalTexture": {
        "index": 2
      },
      "occlusionTexture": {
        "index": 1
      },
      "pbrMetallicRoughness": {
        "baseColorTexture": {
          "index": 0
        },
        "metallicFactor": 0.100000001490116,
        "roughnessFactor": 0.800000011920929
      }
    }
  ],
  "meshes": [
    {
      "primitives": [
        {
          "attributes": {
            "NORMAL": 1,
            "POSITION": 0,
            "TEXCOORD_0": 2
          },
          "indices": 3,
          "material": 0,
          "mode": 4
        }
      ]
    }
  ],
  "nodes": [
    {
      "mesh": 0
    }
  ],
  "scene": 0,
  "scenes": [
    {
      "nodes": [
        0
      ]
    }
  ],
  "textures": [
    {
      "source": 0
    },
    {
      "source": 1
    },
    {
      "source": 2
    }
  ]
}